PathFileType   4   (X/Y/Z)
DataRate	CameraRate	NumFrames	NumMarkers	Units	OrigDataRate	OrigDataStartFrame	OrigNumFrames
120.0	120.0	8	37	mm	120.0	48	126
Frame#	Time	midhip	hip_r	hip_l	knee_r	knee_l	ankle_r	ankle_l	midasis	asis_r	asis_l	psis_r	psis_l	epicondLat_r	epicondLat_l	epicondMed_r	epicondMed_l	malleolusLat_r	malleolusLat_l	malleolusMedv_r	malleolusMedv_l	neck	subclavicle_r	subclavicle_l	sternalnotch	xyphoidprocess	thighwand_r	thighwand_l	upperleg1_r	upperleg1_l	upperleg2_r	upperleg2_l	shankwand_r	shankwand_l	lowerleg1_r	lowerleg1_l	toe_r	toe_l
 	 	X1	Y1	Z1	X2	Y2	Z2	X3	Y3	Z3	X4	Y4	Z4	X5	Y5	Z5	X6	Y6	Z6	X7	Y7	Z7	X8	Y8	Z8	X9	Y9	Z9	X10	Y10	Z10	X11	Y11	Z11	X12	Y12	Z12	X13	Y13	Z13	X14	Y14	Z14	X15	Y15	Z15	X16	Y16	Z16	X17	Y17	Z17	X18	Y18	Z18	X19	Y19	Z19	X20	Y20	Z20	X21	Y21	Z21	X22	Y22	Z22	X23	Y23	Z23	X24	Y24	Z24	X25	Y25	Z25	X26	Y26	Z26	X27	Y27	Z27	X28	Y28	Z28	X29	Y29	Z29	X30	Y30	Z30	X31	Y31	Z31	X32	Y32	Z32	X33	Y33	Z33	X34	Y34	Z34	X35	Y35	Z35	X36	Y36	Z36	X37	Y37	Z37

	48	0.54167	1726.003	879.920	-251.879	1725.603	864.891	-199.782	1714.842	864.900	-305.808	1913.041	486.302	-185.912	1620.921	465.316	-305.718	2034.269	86.497	-180.332	1447.199	82.981	-281.301	1797.553	962.538	-260.635	1808.080	962.529	-156.916	1787.026	962.547	-364.355	1604.144	985.110	-197.275	1593.915	988.564	-282.656	1917.302	490.581	-126.719	1625.707	464.178	-365.014	1890.153	484.162	-237.069	1611.398	474.012	-257.414	2028.063	85.138	-142.867	1446.828	80.631	-320.730	2028.755	93.499	-211.851	1454.488	91.235	-251.365	1662.418	1443.569	-236.177	1770.104	1367.263	-166.129	1749.478	1374.023	-321.308	1747.075	1372.249	-245.959	1780.458	1171.002	-265.974	1898.782	594.077	-41.884	1793.990	562.011	-317.452	1893.241	655.833	-115.048	1733.764	636.339	-359.194	1921.494	579.069	-135.879	1704.456	553.920	-353.099	2013.373	164.344	-75.657	1585.437	147.425	-274.538	1982.486	213.715	-136.191	1542.500	216.055	-294.086	2152.809	103.422	-193.544	1567.748	41.557	-281.944
	49	0.55000	1736.545	878.889	-252.440	1736.317	863.453	-199.740	1724.894	863.609	-305.695	1923.310	485.019	-186.361	1628.235	464.576	-305.937	2047.914	86.095	-180.673	1448.334	84.886	-281.698	1807.851	961.213	-260.901	1819.034	961.059	-157.176	1796.668	961.366	-364.626	1614.758	983.463	-196.518	1604.002	987.370	-281.780	1928.095	489.474	-127.221	1632.647	463.544	-365.264	1898.138	482.761	-237.410	1619.709	473.307	-257.571	2042.123	84.822	-143.139	1447.837	82.604	-321.129	2042.808	93.292	-212.218	1455.858	93.216	-251.825	1672.177	1442.142	-234.999	1780.326	1366.061	-165.353	1759.284	1372.960	-320.383	1757.077	1371.078	-245.073	1791.055	1169.967	-265.448	1910.502	592.958	-42.801	1802.171	560.234	-318.543	1904.271	654.719	-115.970	1742.241	635.096	-359.862	1931.631	577.764	-136.962	1712.636	552.944	-353.693	2027.522	164.112	-75.994	1587.488	147.075	-275.162	1995.399	213.050	-136.443	1546.418	216.605	-294.823	2166.932	103.533	-194.542	1568.090	41.717	-282.334
	50	0.55833	1747.624	878.374	-253.010	1747.149	862.105	-199.601	1735.100	862.346	-305.488	1933.662	483.798	-186.866	1635.869	463.719	-306.128	2059.665	85.133	-181.073	1449.618	86.937	-282.204	1818.290	959.939	-261.103	1830.092	959.703	-157.377	1806.487	960.175	-364.828	1625.552	981.901	-195.781	1614.268	986.224	-280.940	1939.002	488.419	-127.786	1639.940	462.801	-365.482	1906.964	481.651	-238.012	1628.255	472.476	-257.254	2054.330	83.993	-143.467	1449.005	84.736	-321.638	2055.109	92.563	-212.744	1457.296	95.330	-252.368	1682.029	1440.790	-233.729	1790.506	1364.828	-164.464	1769.197	1371.857	-319.398	1767.117	1369.885	-244.113	1801.503	1168.872	-264.777	1922.335	591.964	-43.790	1810.655	558.501	-319.514	1915.583	653.722	-116.928	1750.744	633.767	-360.310	1942.209	576.623	-138.108	1720.824	551.817	-354.007	2040.310	163.429	-76.405	1589.623	146.745	-275.849	2007.433	212.148	-136.774	1550.247	217.089	-295.468	2179.410	102.730	-195.531	1568.496	41.863	-282.764
	51	0.56667	1758.429	877.375	-253.461	1758.118	860.835	-199.375	1745.471	861.107	-305.192	1944.092	482.592	-187.434	1643.867	462.757	-306.286	2069.647	83.613	-181.528	1451.077	89.133	-282.820	1828.892	958.701	-261.247	1841.287	958.435	-157.531	1816.496	958.968	-364.963	1636.511	980.446	-195.096	1624.731	985.113	-280.144	1950.023	487.371	-128.424	1647.612	461.965	-365.662	1917.219	480.842	-239.110	1637.005	471.625	-256.815	2064.800	82.645	-143.851	1450.350	87.032	-322.257	2065.808	91.224	-213.228	1458.902	97.519	-253.000	1691.977	1439.462	-232.466	1800.629	1363.539	-163.357	1779.152	1370.739	-318.298	1777.152	1368.669	-242.995	1811.764	1167.725	-263.946	1934.299	591.077	-44.821	1819.445	556.803	-320.408	1927.070	652.762	-117.910	1759.518	632.411	-360.651	1953.419	575.661	-139.398	1729.206	550.591	-354.210	2051.801	162.285	-76.904	1591.884	146.448	-276.625	2018.640	210.947	-137.131	1553.974	217.535	-295.962	2190.268	100.971	-196.592	1568.967	41.981	-283.223
	52	0.57500	1768.476	875.293	-253.714	1769.257	859.629	-199.082	1756.034	859.897	-304.828	1954.656	481.383	-188.097	1652.267	461.730	-306.419	2078.325	81.660	-182.056	1452.734	91.494	-283.546	1839.685	957.499	-261.342	1852.651	957.236	-157.651	1826.718	957.761	-365.032	1647.619	979.097	-194.465	1635.400	984.030	-279.386	1961.213	486.309	-129.165	1655.680	461.078	-365.818	1927.952	480.032	-240.179	1646.282	470.515	-256.266	2073.919	80.868	-144.321	1451.877	89.520	-322.988	2074.944	89.281	-213.676	1460.758	99.888	-253.722	1701.896	1438.153	-231.173	1810.762	1362.305	-162.133	1789.125	1369.699	-317.073	1787.200	1367.513	-241.757	1822.135	1166.660	-263.039	1946.445	590.286	-45.884	1828.548	555.140	-321.286	1938.657	651.898	-118.950	1768.514	631.006	-360.890	1964.887	574.794	-140.700	1737.940	549.290	-354.324	2062.137	160.758	-77.539	1594.344	146.224	-277.543	2028.775	209.359	-137.542	1557.890	218.010	-296.516	2199.596	98.184	-197.801	1569.504	42.071	-283.693
	53	0.58333	1778.794	873.412	-253.758	1780.554	858.493	-198.737	1766.788	858.735	-304.414	1965.361	480.201	-188.866	1661.071	460.669	-306.565	2085.939	79.520	-182.700	1454.600	94.041	-284.377	1850.673	956.338	-261.383	1864.174	956.101	-157.736	1837.171	956.575	-365.030	1658.857	977.896	-193.854	1646.263	982.979	-278.662	1972.569	485.257	-130.021	1664.134	460.177	-365.984	1938.850	479.186	-241.094	1655.914	469.441	-255.496	2081.925	78.894	-144.918	1453.581	92.228	-323.822	2082.451	86.789	-214.223	1462.826	102.530	-254.554	1711.800	1436.908	-229.744	1820.930	1361.150	-160.878	1799.191	1368.726	-315.786	1797.313	1366.425	-240.476	1832.671	1165.680	-262.075	1958.762	589.592	-46.980	1837.983	553.519	-322.211	1950.428	651.131	-120.032	1777.811	629.606	-361.144	1976.518	573.991	-141.947	1746.907	547.876	-354.359	2071.496	159.028	-78.367	1597.046	146.109	-278.652	2037.834	207.447	-138.126	1562.067	218.586	-297.206	2207.588	94.212	-199.211	1570.113	42.144	-284.158
	54	0.59167	1790.269	872.832	-253.570	1791.962	857.441	-198.349	1777.716	857.636	-303.963	1976.090	479.149	-189.714	1670.263	459.612	-306.781	2092.454	77.408	-183.473	1456.694	96.793	-285.310	1861.833	955.228	-261.362	1875.805	955.038	-157.777	1847.860	955.419	-364.947	1670.167	976.876	-193.243	1657.302	981.975	-277.967	1983.959	484.320	-130.964	1672.957	459.305	-366.219	1950.094	478.491	-242.098	1665.845	468.339	-255.067	2088.869	76.958	-145.646	1455.474	95.177	-324.758	2088.476	83.892	-214.928	1465.140	105.441	-255.539	1721.760	1435.677	-228.239	1831.147	1360.097	-159.600	1809.331	1367.886	-314.494	1807.486	1365.445	-239.184	1843.413	1164.841	-261.152	1971.128	589.037	-48.104	1847.789	551.948	-323.247	1962.421	650.453	-121.115	1787.502	628.292	-361.497	1988.370	573.281	-143.183	1756.242	546.497	-354.582	2080.064	157.336	-79.417	1599.974	146.117	-279.986	2045.960	205.334	-138.908	1566.546	219.369	-298.123	2214.472	89.014	-200.840	1570.799	42.207	-284.605
	55	0.60000	1801.866	872.384	-253.056	1803.431	856.486	-197.923	1788.802	856.613	-303.484	1986.820	478.438	-190.649	1679.863	458.612	-307.089	2097.988	75.525	-184.383	1459.066	99.784	-286.356	1873.137	954.180	-261.260	1887.483	954.056	-157.748	1858.791	954.305	-364.772	1681.478	976.046	-192.658	1668.490	981.045	-277.313	1995.319	483.689	-131.994	1682.162	458.521	-366.544	1961.631	478.151	-243.367	1676.577	466.576	-255.700	2094.909	75.265	-146.508	1457.606	98.402	-325.805	2093.571	81.013	-215.871	1467.755	108.597	-256.604	1731.742	1434.452	-226.710	1841.422	1359.172	-158.244	1819.463	1367.198	-313.138	1817.684	1364.595	-237.816	1854.346	1164.173	-260.220	1983.418	588.701	-49.276	1858.033	550.439	-324.438	1974.617	649.912	-122.163	1797.560	627.051	-361.950	2000.389	572.738	-144.447	1766.426	545.372	-355.307	2088.043	155.890	-80.687	1603.150	146.285	-281.563	2053.583	203.396	-140.161	1571.299	220.330	-299.207	2220.427	82.843	-202.694	1571.551	42.260	-285.032
